# xmcd
#
# Track frame offsets: 
#        150
#        12006
#        22628
#        37225
#        50668
#        64445
#        78093
#        90660
#        106166
#        120372
#        133947
#        147157
#        161182
#        174271
#        186410
#        200950
#        213461
#        228083
#        240173
#        253018
#        264316
#        275369
#        285767
#        298303
#        311616
#
# Disc length: 4329 seconds
#
# Revision: 1
# Processed by: cddbd v1.5.2PL0 Copyright (c) Steve Scherf et al.
# Submitted via: ExactAudioCopy v1.0b3
#
DISCID=6210e719
DTITLE=Tubb, Ernest - The Texas Troubador [Disc 1]
DYEAR=2003
DGENRE=Honky Tonk
TTITLE0=Walking The Floor Over You
TTITLE1=Try Me One More Time
TTITLE2=Soldier's Last Letter
TTITLE3=Yesterday's Tears
TTITLE4=Keep My Mem'ry In Your Heart
TTITLE5=Tomorrow Never Comes
TTITLE6=Careless Darlin'
TTITLE7=It's Been So Long Darling
TTITLE8=Rainbow At Midnight
TTITLE9=Filipino Baby
TTITLE10=Drivin' Nails In My Coffin
TTITLE11=Don't Look Now
TTITLE12=So Round So Firm So Fully Packed
TTITLE13=I'll Step Aside
TTITLE14=Seaman's Blues
TTITLE15=You Nearly Lose Your Mind
TTITLE16=Forever Is Ending Today
TTITLE17=That Wild And Wicked Look In Your Eye
TTITLE18=Have You Ever Been Lonely (Have You Ever Been Blue)
TTITLE19=Let's Say Goodbye Like We Said Hello
TTITLE20=Till The End Of The World
TTITLE21=I'm Biting My Fingernails And Thinking Of You
TTITLE22=Don't Rob Another Man's Castle
TTITLE23=Daddy When Is Mommy Coming Home
TTITLE24=Mean Mama Blues
EXTD=
EXTT0=
EXTT1=
EXTT2=
EXTT3=
EXTT4=
EXTT5=
EXTT6=
EXTT7=
EXTT8=
EXTT9=
EXTT10=
EXTT11=
EXTT12=
EXTT13=
EXTT14=
EXTT15=
EXTT16=
EXTT17=
EXTT18=
EXTT19=
EXTT20=
EXTT21=
EXTT22=
EXTT23=
EXTT24=
PLAYORDER=
